<svg width="229" height="197" viewBox="0 0 229 197" fill="none" xmlns="http://www.w3.org/2000/svg">
<path d="M8.23438 188.927H9.46875V167.52H17.3594V166.38H0.328125V167.52H8.23438V188.927ZM14.7656 188.927H16.0938L18.9219 181.411H29.0938L31.9219 188.927H33.25L24.6406 166.38H23.3906L14.7656 188.927ZM24 167.973H24.0312L28.6875 180.302H19.3438L24 167.973ZM42.6562 189.255C47.3281 189.255 50.4531 186.802 50.4531 183.13V183.114C50.4531 179.942 48.6562 178.223 44.0625 177.177L41.6406 176.63C37.9375 175.77 36.3281 174.348 36.3281 171.895V171.88C36.3281 169.114 38.8281 167.208 42.3906 167.208C45.9844 167.208 48.5 169.192 48.7969 172.27L48.8125 172.473H50.0469L50.0312 172.27C49.75 168.552 46.6875 166.052 42.4062 166.052C38.1719 166.052 35.0781 168.505 35.0625 171.895V171.927C35.0625 175.005 36.9375 176.77 41.25 177.77L43.6719 178.333C47.6562 179.239 49.2031 180.614 49.2031 183.161V183.177C49.2031 186.145 46.5938 188.098 42.6875 188.098C38.7344 188.098 36.0469 186.098 35.7656 183.036L35.75 182.833H34.5L34.5156 183.036C34.7969 186.817 37.9844 189.255 42.6562 189.255ZM53.375 188.927H54.6094V180.677L57.8438 177.192L67.3125 188.927H68.9062L58.7188 176.317L67.8594 166.38H66.2969L54.6875 179.02H54.6094V166.38H53.375V188.927ZM70.7969 188.927H75.8438V174.833H75.9688L81.4844 188.927H84.7656L90.2812 174.833H90.4062V188.927H95.4531V166.38H88.8281L83.1719 181.114H83.0781L77.4219 166.38H70.7969V188.927ZM97.6094 188.927H103.625L105.031 183.973H112.391L113.797 188.927H119.812L112.219 166.38H105.203L97.6094 188.927ZM108.656 171.286H108.766L111.203 179.848H106.219L108.656 171.286ZM121.984 188.927H127.703V175.77H127.812L136.875 188.927H141.688V166.38H135.969V179.395H135.859L126.844 166.38H121.984V188.927ZM143.859 188.927H149.875L151.281 183.973H158.641L160.047 188.927H166.062L158.469 166.38H151.453L143.859 188.927ZM154.906 171.286H155.016L157.453 179.848H152.469L154.906 171.286ZM177.406 189.333C183.828 189.333 187.641 185.567 187.641 179.395V176.567H177.594V180.63H182.109L182.094 180.911C181.906 183.177 180.125 184.583 177.531 184.583C174.234 184.583 172.109 182.02 172.109 177.552V177.536C172.109 173.161 174.031 170.723 177.281 170.723C179.484 170.723 181.094 171.802 181.688 173.63L181.734 173.786H187.406L187.375 173.598C186.781 169.223 182.797 165.973 177.266 165.973C170.469 165.973 166.266 170.286 166.266 177.598V177.614C166.266 185.036 170.453 189.333 177.406 189.333ZM190.484 188.927H205.938V184.317H196.219V179.755H205.359V175.442H196.219V170.989H205.938V166.38H190.484V188.927ZM209.172 188.927H214.906V181.161H217.828L221.703 188.927H228.141L223.625 180.302C225.969 179.286 227.469 176.786 227.469 173.895V173.864C227.469 169.083 224.391 166.38 218.938 166.38H209.172V188.927ZM214.906 177.005V170.708H218.266C220.281 170.708 221.625 171.958 221.625 173.848V173.88C221.625 175.786 220.328 177.005 218.297 177.005H214.906Z" fill="white"/>
<g clip-path="url(#clip0_437_24)">
<path fill-rule="evenodd" clip-rule="evenodd" d="M69.6763 112.336C65.4078 122.697 59.6389 132.535 57.9873 142.897L63.9539 142.385C73.375 114.987 81.8655 96.5668 100.277 73.5298C114.095 56.2725 129.087 42.5387 148.313 31.6307C158.548 25.8163 171.656 19.4552 183.45 17.8504C186.671 17.4085 189.94 17.2806 193.289 17.5713C156.768 25.9326 127.854 45.2948 104.755 74.3206C95.3224 86.1589 87.1227 99.3112 79.5858 113.173L93.4731 115.708L87.6926 112.836L108.372 109.545C100.696 106.835 93.1126 107.742 90.6817 104.823C111.966 103.858 129.459 99.2647 141.741 90.3453C137.17 89.7057 131.902 89.1359 129.157 87.8218C149.732 80.8677 161.63 68.3666 176.727 57.2726C157.106 61.3892 138.95 60.7147 133.693 56.9818C168.318 59.5518 190.684 49.9812 198.349 25.8512C199.012 23.2463 199.198 20.6181 198.779 17.9667C196.092 0.720995 165.561 -5.10511 155.629 9.03569C153.64 11.8615 150.837 14.4548 148.522 17.7341L157.978 0C132.53 8.59379 130.436 18.0714 117.27 46.6205C118.317 37.9336 120.724 30.0608 123.853 22.6299C92.0542 34.8985 81.4584 65.785 79.7603 92.0548C78.8415 82.8911 80.5396 71.3785 83.8195 58.4471C74.538 67.7503 68.2225 78.6698 70.4789 94.2526L66.2336 92.3571L68.4667 100.718L62.1163 97.7064L69.6763 112.336Z" fill="white"/>
</g>
<g opacity="0.5" clip-path="url(#clip1_437_24)">
<path fill-rule="evenodd" clip-rule="evenodd" d="M60.8051 117.586C59.6133 126.237 57.1873 134.787 57.9695 142.927L62.3701 141.373C64.114 118.862 66.9132 103.305 76.2926 82.3239C83.3377 66.6017 91.9585 53.3075 104.326 41.3162C110.909 34.9268 119.551 27.5628 128.134 24.0439C130.477 23.08 132.918 22.3438 135.501 21.9074C109.589 35.3628 91.568 55.6278 79.8251 82.044C75.027 92.8202 71.416 104.346 68.444 116.278L79.4157 115.472L74.4931 114.437L89.4482 107.906C83.1274 107.365 77.5846 109.534 75.1796 107.808C91.0462 102.913 103.342 96.0246 110.861 86.8924C107.288 87.3046 103.202 87.9061 100.875 87.4521C115.034 78.1792 121.562 66.4204 130.779 55.0969C116.784 62.0427 102.956 65.0876 98.2598 63.3008C124.882 58.4622 139.88 46.865 140.938 27.1628C140.929 25.0681 140.555 23.0492 139.72 21.1311C134.318 8.64809 110.147 10.2292 105.422 22.8402C104.475 25.3611 102.868 27.8659 101.764 30.7926L105.426 15.5644C87.9114 27.028 88.1872 34.587 83.8436 58.6994C82.9329 51.9418 83.2081 45.5319 84.1137 39.3142C62.5283 54.7927 60.5811 80.1652 64.4421 100.314C61.9553 93.5811 60.9829 84.5644 60.9259 74.1679C55.7456 83.0022 53.1189 92.4753 57.871 103.788L54.2977 103.189L57.6188 109.059L52.2389 108.03L60.8051 117.586Z" fill="white"/>
</g>
<defs>
<clipPath id="clip0_437_24">
<rect width="141.013" height="142.897" fill="white" transform="translate(57.9873)"/>
</clipPath>
<clipPath id="clip1_437_24">
<rect width="109.892" height="111.36" fill="white" transform="translate(30 35.1359) rotate(-14.5463)"/>
</clipPath>
</defs>
</svg>
